<mxfile host="app.diagrams.net" modified="2024-03-18T19:48:00.829Z" agent="Mozilla/5.0 (Windows NT 10.0; Win64; x64; rv:123.0) Gecko/20100101 Firefox/123.0" etag="UNy4uw18Bxyd7GtrfOv-" version="24.0.7" type="github">
  <diagram id="C5RBs43oDa-KdzZeNtuy" name="Page-1">
    <mxGraphModel dx="819" dy="447" grid="1" gridSize="10" guides="1" tooltips="1" connect="1" arrows="1" fold="1" page="1" pageScale="1" pageWidth="827" pageHeight="1169" math="0" shadow="0">
      <root>
        <mxCell id="WIyWlLk6GJQsqaUBKTNV-0" />
        <mxCell id="WIyWlLk6GJQsqaUBKTNV-1" parent="WIyWlLk6GJQsqaUBKTNV-0" />
        <mxCell id="lvpHEAT8mCKJbSaH7V8O-1" value="&lt;div&gt;&lt;b&gt;Run MCTS Simulations&lt;/b&gt;&lt;/div&gt;" style="rounded=0;whiteSpace=wrap;html=1;" vertex="1" parent="WIyWlLk6GJQsqaUBKTNV-1">
          <mxGeometry x="270" y="120" width="210" height="50" as="geometry" />
        </mxCell>
        <mxCell id="lvpHEAT8mCKJbSaH7V8O-2" value="Train model on data generated from MCTS" style="rounded=0;whiteSpace=wrap;html=1;" vertex="1" parent="WIyWlLk6GJQsqaUBKTNV-1">
          <mxGeometry x="270" y="220" width="210" height="60" as="geometry" />
        </mxCell>
        <mxCell id="lvpHEAT8mCKJbSaH7V8O-3" value="Evaluate the model performance in a &quot;Tournament&quot;" style="rounded=0;whiteSpace=wrap;html=1;" vertex="1" parent="WIyWlLk6GJQsqaUBKTNV-1">
          <mxGeometry x="270" y="330" width="210" height="60" as="geometry" />
        </mxCell>
        <mxCell id="lvpHEAT8mCKJbSaH7V8O-4" value="" style="endArrow=classic;html=1;rounded=0;entryX=0.5;entryY=0;entryDx=0;entryDy=0;exitX=0.5;exitY=1;exitDx=0;exitDy=0;" edge="1" parent="WIyWlLk6GJQsqaUBKTNV-1" source="lvpHEAT8mCKJbSaH7V8O-2" target="lvpHEAT8mCKJbSaH7V8O-3">
          <mxGeometry width="50" height="50" relative="1" as="geometry">
            <mxPoint x="280" y="320" as="sourcePoint" />
            <mxPoint x="330" y="270" as="targetPoint" />
          </mxGeometry>
        </mxCell>
        <mxCell id="lvpHEAT8mCKJbSaH7V8O-5" value="" style="endArrow=classic;html=1;rounded=0;entryX=0.5;entryY=0;entryDx=0;entryDy=0;exitX=0.5;exitY=1;exitDx=0;exitDy=0;" edge="1" parent="WIyWlLk6GJQsqaUBKTNV-1" source="lvpHEAT8mCKJbSaH7V8O-1" target="lvpHEAT8mCKJbSaH7V8O-2">
          <mxGeometry width="50" height="50" relative="1" as="geometry">
            <mxPoint x="280" y="320" as="sourcePoint" />
            <mxPoint x="330" y="270" as="targetPoint" />
          </mxGeometry>
        </mxCell>
        <mxCell id="lvpHEAT8mCKJbSaH7V8O-6" value="Most recent model was trained on 200,000 samples" style="text;html=1;align=center;verticalAlign=middle;whiteSpace=wrap;rounded=0;" vertex="1" parent="WIyWlLk6GJQsqaUBKTNV-1">
          <mxGeometry x="520" y="220" width="130" height="60" as="geometry" />
        </mxCell>
        <mxCell id="lvpHEAT8mCKJbSaH7V8O-7" value="Games are run in parallel. &lt;u&gt;Each turn&lt;/u&gt; 12500 individual simulations are ran." style="text;strokeColor=none;fillColor=none;align=left;verticalAlign=middle;spacingLeft=4;spacingRight=4;overflow=hidden;points=[[0,0.5],[1,0.5]];portConstraint=eastwest;rotatable=0;whiteSpace=wrap;html=1;" vertex="1" parent="WIyWlLk6GJQsqaUBKTNV-1">
          <mxGeometry x="520" y="120" width="130" height="50" as="geometry" />
        </mxCell>
        <mxCell id="lvpHEAT8mCKJbSaH7V8O-8" value="1000 randomly generated states are played out." style="text;html=1;align=center;verticalAlign=middle;whiteSpace=wrap;rounded=0;" vertex="1" parent="WIyWlLk6GJQsqaUBKTNV-1">
          <mxGeometry x="520" y="330" width="130" height="60" as="geometry" />
        </mxCell>
      </root>
    </mxGraphModel>
  </diagram>
</mxfile>
